<?xml version="1.0" standalone="no"?><!DOCTYPE svg PUBLIC "-//W3C//DTD SVG 1.1//EN" "http://www.w3.org/Graphics/SVG/1.1/DTD/svg11.dtd"><svg t="1773945921365" class="icon" viewBox="0 0 1575 1024" version="1.1" xmlns="http://www.w3.org/2000/svg" p-id="25136" xmlns:xlink="http://www.w3.org/1999/xlink" width="307.6171875" height="200"><path d="M1270.232615 440.556308l-309.16923-252.061539a39.384615 39.384615 0 0 1 49.782153-60.967384l385.890462 314.525538a39.384615 39.384615 0 0 1 0.630154 60.494769l-385.811692 329.255385a39.384615 39.384615 0 1 1-51.2-59.864615l296.014769-252.612924H429.607385a39.384615 39.384615 0 1 1 0-78.76923h840.62523z m-1042.35323 0a39.384615 39.384615 0 1 1 0 78.76923h-61.912616a39.384615 39.384615 0 1 1 0-78.76923h61.912616z" fill="#D2D2D2" p-id="25137"></path></svg>